<svg xmlns="http://www.w3.org/2000/svg" version="1.1" xmlns:xlink="http://www.w3.org/1999/xlink" xmlns:svgjs="http://svgjs.dev/svgjs" width="1440" height="560" preserveAspectRatio="none" viewBox="0 0 1440 560"><g mask="url(&quot;#SvgjsMask1001&quot;)" fill="none"><rect width="1440" height="560" x="0" y="0" fill="#0e2a47"></rect><path d="M461.88 32.86L462.94 32.86L462.94 64.02L461.88 64.02z" stroke="#e73635"></path><path d="M280.77 24.46L294.14 24.46L294.14 37.83L280.77 37.83z" stroke="#037b0b"></path><path d="M407.55 226.15L412.96 226.15L412.96 244.39L407.55 244.39z" fill="#037b0b"></path><path d="M529.61 513.35L555.64 513.35L555.64 539.38L529.61 539.38z" stroke="#e73635"></path><path d="M868.89 12.71 a10.93 10.93 0 1 0 21.86 0 a10.93 10.93 0 1 0 -21.86 0z" fill="#037b0b"></path><path d="M431.2 447.7a22.36 22.36 0 1 0 10.58 43.46z" stroke="rgba(37, 67, 161, 1)"></path><path d="M1322.74 317.4 a49.45 49.45 0 1 0 98.9 0 a49.45 49.45 0 1 0 -98.9 0z" fill="#037b0b"></path><path d="M617.33 487.07a35.73 35.73 0 1 0 65.78-27.92z" fill="#e73635"></path><path d="M510.38 532.26L565.55 532.26L565.55 536.7L510.38 536.7z" fill="#e73635"></path><path d="M597.9 208.52a13.96 13.96 0 1 0 22.32 16.77z" fill="#e73635"></path><path d="M783.88 66.97 a1.65 1.65 0 1 0 3.3 0 a1.65 1.65 0 1 0 -3.3 0z" stroke="rgba(37, 67, 161, 1)"></path><path d="M1151.38 62.81 a32.82 32.82 0 1 0 65.64 0 a32.82 32.82 0 1 0 -65.64 0z" stroke="#e73635"></path><path d="M396.48 333.23L413.15 333.23L413.15 350.22L396.48 350.22z" fill="#e73635"></path><path d="M758.8 13.02 a33.73 33.73 0 1 0 67.46 0 a33.73 33.73 0 1 0 -67.46 0z" stroke="#037b0b"></path><path d="M732.3 69.73a52.24 52.24 0 1 0-19.74 102.6z" stroke="rgba(37, 67, 161, 1)"></path><path d="M912.45 466.01L947.68 466.01L947.68 501.24L912.45 501.24z" stroke="rgba(37, 67, 161, 1)"></path><path d="M682.97 516.16L683.8 516.16L683.8 516.99L682.97 516.99z" fill="#e73635"></path><path d="M1294.85 198.53L1315.59 198.53L1315.59 219.27L1294.85 219.27z" fill="#e73635"></path><path d="M91.45 359.54L113.91 359.54L113.91 382L91.45 382z" stroke="#e73635"></path><path d="M351.81 7.48L377.58 7.48L377.58 33.25L351.81 33.25z" stroke="rgba(37, 67, 161, 1)"></path><path d="M255.25 353.13L302.96 353.13L302.96 388.15L255.25 388.15z" stroke="rgba(37, 67, 161, 1)"></path><path d="M1417.28 492.46L1458.78 492.46L1458.78 546.62L1417.28 546.62z" stroke="rgba(37, 67, 161, 1)"></path><path d="M1344.79 54.9 a4.04 4.04 0 1 0 8.08 0 a4.04 4.04 0 1 0 -8.08 0z" stroke="#e73635"></path><path d="M79.64 47.46 a30.18 30.18 0 1 0 60.36 0 a30.18 30.18 0 1 0 -60.36 0z" stroke="#e73635"></path><path d="M424.6 371.53L470.52 371.53L470.52 407.3L424.6 407.3z" fill="#037b0b"></path><path d="M1437.07 59.61L1441.1 59.61L1441.1 63.64L1437.07 63.64z" stroke="rgba(37, 67, 161, 1)"></path><path d="M437.84 511.44L488.79 511.44L488.79 562.39L437.84 562.39z" stroke="rgba(37, 67, 161, 1)"></path><path d="M1384.18 78.4L1433.68 78.4L1433.68 127.9L1384.18 127.9z" fill="#e73635"></path><path d="M122.25 390.59L169.44 390.59L169.44 437.78L122.25 437.78z" stroke="#e73635"></path><path d="M342.65 373.47L390.23 373.47L390.23 421.05L342.65 421.05z" fill="#037b0b"></path><path d="M670.48 558.42L723.43 558.42L723.43 611.37L670.48 611.37z" stroke="#e73635"></path><path d="M505.76 546.71L519.59 546.71L519.59 560.54L505.76 560.54z" stroke="#e73635"></path><path d="M711.32 65.97L755.13 65.97L755.13 109.78L711.32 109.78z" fill="rgba(37, 67, 161, 1)"></path></g><defs><mask id="SvgjsMask1001"><rect width="1440" height="560" fill="#ffffff"></rect></mask></defs></svg>